<svg xmlns="http://www.w3.org/2000/svg" width="1200" height="1200" viewBox="0 0 1200 1200" role="img" aria-labelledby="title desc">
  <title id="title">Najd Signature Saudi Coffee Blend</title>
  <desc id="desc">Generated product illustration for Najd Signature Saudi Coffee Blend</desc>
  <defs>
    <linearGradient id="bg" x1="0" y1="0" x2="1" y2="1">
      <stop offset="0" stop-color="#fff7ed"/>
      <stop offset="1" stop-color="#ffffff"/>
    </linearGradient>
    <pattern id="pattern" width="86" height="86" patternUnits="userSpaceOnUse">
      <path d="M43 8l35 35-35 35L8 43z" fill="none" stroke="#c98b2c" stroke-width="2" opacity=".18"/>
      <circle cx="43" cy="43" r="6" fill="#c98b2c" opacity=".12"/>
    </pattern>
    <filter id="shadow" x="-20%" y="-20%" width="140%" height="140%">
      <feDropShadow dx="0" dy="28" stdDeviation="28" flood-color="#1f2933" flood-opacity=".18"/>
    </filter>
  </defs>
  <rect width="1200" height="1200" fill="url(#bg)"/>
  <rect x="88" y="88" width="1024" height="1024" rx="60" fill="url(#pattern)"/>
  <circle cx="966" cy="234" r="95" fill="#1f6f5f" opacity=".14"/>
  <circle cx="239" cy="942" r="128" fill="#c98b2c" opacity=".12"/>
  <g filter="url(#shadow)">
    <path d="M413 367h274l47 346c4 32-21 60-54 60H420c-33 0-58-28-54-60l47-346Z" fill="#1f6f5f"/>
    <path d="M439 367c5-87 50-137 111-137s106 50 111 137" fill="none" stroke="#c98b2c" stroke-width="28" stroke-linecap="round"/>
    <path d="M457 500h186M438 574h224M421 648h258" stroke="#8a5a32" stroke-width="20" stroke-linecap="round"/>
    <circle cx="748" cy="421" r="52" fill="#8a5a32"/>
    <path d="M728 421c45-43 66-89 64-140 59 70 48 134-64 140Z" fill="#c98b2c"/>
  </g>
  <text x="600" y="970" text-anchor="middle" font-family="Arial, sans-serif" font-size="38" font-weight="700" fill="#1f2933">Najd Signature Saudi Coffee Blend</text>
  <text x="600" y="1026" text-anchor="middle" font-family="Arial, sans-serif" font-size="24" fill="#4b5563">Saudi Coffee · SAR 79</text>
</svg>