<svg xmlns="http://www.w3.org/2000/svg" width="1200" height="1200" viewBox="0 0 1200 1200" role="img" aria-labelledby="title desc">
  <title id="title">Ramadan Majlis Bundle</title>
  <desc id="desc">Generated product illustration for Ramadan Majlis Bundle</desc>
  <defs>
    <linearGradient id="bg" x1="0" y1="0" x2="1" y2="1">
      <stop offset="0" stop-color="#f0f9ff"/>
      <stop offset="1" stop-color="#ffffff"/>
    </linearGradient>
    <pattern id="pattern" width="86" height="86" patternUnits="userSpaceOnUse">
      <path d="M43 8l35 35-35 35L8 43z" fill="none" stroke="#b65b3a" stroke-width="2" opacity=".18"/>
      <circle cx="43" cy="43" r="6" fill="#b65b3a" opacity=".12"/>
    </pattern>
    <filter id="shadow" x="-20%" y="-20%" width="140%" height="140%">
      <feDropShadow dx="0" dy="28" stdDeviation="28" flood-color="#1f2933" flood-opacity=".18"/>
    </filter>
  </defs>
  <rect width="1200" height="1200" fill="url(#bg)"/>
  <rect x="88" y="88" width="1024" height="1024" rx="60" fill="url(#pattern)"/>
  <circle cx="966" cy="234" r="95" fill="#1f6f5f" opacity=".14"/>
  <circle cx="239" cy="942" r="128" fill="#b65b3a" opacity=".12"/>
  <g filter="url(#shadow)">
      <path d="M688 287c-83 64-93 186-21 263 57 61 148 75 221 34-40 110-146 188-271 188-159 0-288-129-288-288 0-130 85-239 203-275-7 42 29 83 156 78Z" fill="#b65b3a"/>
      <rect x="320" y="615" width="460" height="126" rx="28" fill="#1f6f5f"/>
      <path d="M380 612v130M550 612v130M720 612v130" stroke="#c98b2c" stroke-width="24"/>
      <circle cx="462" cy="372" r="20" fill="#c98b2c"/><circle cx="516" cy="326" r="13" fill="#c98b2c"/><circle cx="777" cy="474" r="15" fill="#c98b2c"/>
    </g>
  <text x="600" y="970" text-anchor="middle" font-family="Arial, sans-serif" font-size="38" font-weight="700" fill="#1f2933">Ramadan Majlis Bundle</text>
  <text x="600" y="1026" text-anchor="middle" font-family="Arial, sans-serif" font-size="24" fill="#4b5563">Bundles · SAR 459</text>
</svg>